<svg width="113" height="113" viewBox="0 0 113 113" fill="none" xmlns="http://www.w3.org/2000/svg">
<rect x="-0.5" y="0.5" width="112" height="112" rx="56" transform="matrix(-1 0 0 1 112 0)" fill="white" fill-opacity="0.15"/>
<rect x="-0.5" y="0.5" width="112" height="112" rx="56" transform="matrix(-1 0 0 1 112 0)" stroke="url(#paint0_linear_1_20)"/>
<path d="M66.8861 58.3824L53.3019 71.3255C53.0753 71.5416 52.7741 71.6621 52.461 71.6621C52.1478 71.6621 51.8467 71.5416 51.62 71.3255L51.6054 71.3109C51.4952 71.2061 51.4074 71.08 51.3474 70.9403C51.2874 70.8005 51.2564 70.6501 51.2564 70.498C51.2564 70.3459 51.2874 70.1954 51.3474 70.0556C51.4074 69.9159 51.4952 69.7898 51.6054 69.6851L64.3974 57.4976L51.6054 45.3149C51.4952 45.2102 51.4074 45.0841 51.3474 44.9444C51.2874 44.8046 51.2564 44.6541 51.2564 44.502C51.2564 44.3499 51.2874 44.1995 51.3474 44.0597C51.4074 43.92 51.4952 43.7939 51.6054 43.6891L51.62 43.6745C51.8467 43.4584 52.1478 43.3379 52.461 43.3379C52.7741 43.3379 53.0753 43.4584 53.3019 43.6745L66.8861 56.6176C67.0056 56.7314 67.1007 56.8683 67.1657 57.02C67.2307 57.1717 67.2642 57.335 67.2642 57.5C67.2642 57.665 67.2307 57.8283 67.1657 57.98C67.1007 58.1317 67.0056 58.2686 66.8861 58.3824Z" fill="white"/>
<defs>
<linearGradient id="paint0_linear_1_20" x1="13.5" y1="16" x2="86.5" y2="101" gradientUnits="userSpaceOnUse">
<stop stop-color="white"/>
<stop offset="1" stop-color="white" stop-opacity="0"/>
</linearGradient>
</defs>
</svg>
