<svg width="113" height="113" viewBox="0 0 113 113" fill="none" xmlns="http://www.w3.org/2000/svg">
<rect x="0.5" y="0.5" width="112" height="112" rx="56" fill="white" fill-opacity="0.15"/>
<rect x="0.5" y="0.5" width="112" height="112" rx="56" stroke="url(#paint0_linear_1_17)"/>
<path d="M46.1139 58.3824L59.6981 71.3255C59.9247 71.5416 60.2259 71.6621 60.539 71.6621C60.8522 71.6621 61.1533 71.5416 61.38 71.3255L61.3946 71.3109C61.5048 71.2061 61.5926 71.08 61.6526 70.9403C61.7126 70.8005 61.7436 70.6501 61.7436 70.498C61.7436 70.3459 61.7126 70.1954 61.6526 70.0556C61.5926 69.9159 61.5048 69.7898 61.3946 69.6851L48.6026 57.4976L61.3946 45.3149C61.5048 45.2102 61.5926 45.0841 61.6526 44.9444C61.7126 44.8046 61.7436 44.6541 61.7436 44.502C61.7436 44.3499 61.7126 44.1995 61.6526 44.0597C61.5926 43.92 61.5048 43.7939 61.3946 43.6891L61.38 43.6745C61.1533 43.4584 60.8522 43.3379 60.539 43.3379C60.2259 43.3379 59.9247 43.4584 59.6981 43.6745L46.1139 56.6176C45.9944 56.7314 45.8993 56.8683 45.8343 57.02C45.7693 57.1717 45.7358 57.335 45.7358 57.5C45.7358 57.665 45.7693 57.8283 45.8343 57.98C45.8993 58.1317 45.9944 58.2686 46.1139 58.3824Z" fill="white"/>
<defs>
<linearGradient id="paint0_linear_1_17" x1="13.5" y1="16" x2="86.5" y2="101" gradientUnits="userSpaceOnUse">
<stop stop-color="white"/>
<stop offset="1" stop-color="white" stop-opacity="0"/>
</linearGradient>
</defs>
</svg>
